<svg width="68" height="68" viewBox="0 0 68 68" fill="none" xmlns="http://www.w3.org/2000/svg">
<g clip-path="url(#clip0_177_703)">
<path d="M31.45 34.2266C24.8483 21.4483 30.0333 10.1999 32.9517 5.69495C17.765 6.23328 5.60999 18.6716 5.60999 33.9999C5.60999 34.3966 5.66665 34.7933 5.66665 35.1899C7.42332 34.4249 9.32165 33.9999 11.3333 33.9999C16.0367 33.9999 20.3433 36.3516 22.95 40.0916C27.6817 41.4516 31.1667 45.8149 31.1667 50.9999C31.1667 55.3066 28.7017 59.0183 25.16 60.945C27.9367 61.8516 30.9117 62.3616 33.9717 62.3616C43.8883 62.3616 52.615 57.2616 57.6867 49.5549C51 50.2066 37.91 46.8066 31.45 34.2266Z" fill="#323232"/>
<path d="M19.8334 45.3333H19.3234C18.1334 42.0466 15.0167 39.6666 11.3334 39.6666C6.63004 39.6666 2.83337 43.4633 2.83337 48.1666C2.83337 52.87 6.63004 56.6666 11.3334 56.6666C13.09 56.6666 18.3884 56.6666 19.8334 56.6666C22.95 56.6666 25.5 54.1166 25.5 51C25.5 47.8833 22.95 45.3333 19.8334 45.3333Z" fill="#323232"/>
</g>
<defs>
<clipPath id="clip0_177_703">
<rect width="68" height="68" fill="white"/>
</clipPath>
</defs>
</svg>
